<svg width="1672" height="1069" viewBox="0 0 1672 1069" xmlns="http://www.w3.org/2000/svg">
  <path d="M815.692 0C833.22 0 841.985 2.41995e-05 849.625 1.78711C869.245 6.37633 885.82 19.4308 894.879 37.4297C897.965 43.5626 899.924 50.8529 903.116 63.9951L906.019 76.0049C909.211 89.1471 911.168 96.4374 914.255 102.57C923.314 120.569 939.888 133.624 959.509 138.213C967.149 140 975.913 140 993.441 140H1536C1600.11 140 1632.17 140 1652.08 159.917C1672 179.834 1672 211.889 1672 276V561C1672 582.293 1672 600.049 1671.27 615H1672V1005C1672 1040.35 1643.35 1069 1608 1069H889.15V1068.6H136C71.889 1068.6 39.8337 1068.6 19.917 1048.68C0.000263214 1028.76 0 996.709 0 932.598V131.87C8.24663e-06 110.036 17.7006 92.335 39.5352 92.335C56.3241 92.3349 71.2825 81.7308 76.8408 65.8887L83.7598 46.168C83.9881 45.5172 84.1024 45.1914 84.209 44.8965C93.864 18.1699 119.12 0.265169 147.536 0.00292969C147.85 3.70545e-05 148.195 0 148.885 0H815.692Z" fill="#fff"/>
</svg>
