<svg width="1672" height="1069" viewBox="0 0 1672 1069" xmlns="http://www.w3.org/2000/svg">
  <path d="M148.885 0.5H815.692C833.246 0.5 841.94 0.503744 849.511 2.27441C868.987 6.82989 885.441 19.7878 894.433 37.6543C897.107 42.9677 898.931 49.1687 901.486 59.4482L902.63 64.1133L905.532 76.1221V76.123C908.722 89.253 910.692 96.6016 913.809 102.795C922.934 120.926 939.63 134.077 959.395 138.7C967.105 140.504 975.939 140.5 993.441 140.5H1536C1568.07 140.5 1592.07 140.501 1610.55 142.985C1629.01 145.468 1641.88 150.421 1651.73 160.271C1661.58 170.12 1666.53 182.99 1669.01 201.452C1671.5 219.928 1671.5 243.93 1671.5 276V561C1671.5 582.297 1671.5 600.04 1670.77 614.976L1670.74 615.5H1671.5V1005C1671.5 1040.07 1643.07 1068.5 1608 1068.5H889.65V1068.1H136C103.93 1068.1 79.9284 1068.1 61.4521 1065.61C42.9904 1063.13 30.1205 1058.18 20.2705 1048.33C10.4205 1038.48 5.46756 1025.61 2.98535 1007.15C0.501215 988.669 0.5 964.667 0.5 932.598V131.87C0.500008 110.312 17.9768 92.835 39.5352 92.835C56.5363 92.8349 71.6837 82.0969 77.3125 66.0547L84.2314 46.334C84.4601 45.6823 84.5741 45.3586 84.6797 45.0664C94.2638 18.5364 119.334 0.76324 147.541 0.50293C147.852 0.500066 148.194 0.5 148.885 0.5Z"
    fill="none"
    stroke="rgba(0,0,0,0.38)"
    stroke-width="1"/>
</svg>
